<svg width="20" height="23" viewBox="0 0 20 23" fill="none" xmlns="http://www.w3.org/2000/svg">
<path d="M0 2.77811C0.00015077 2.29145 0.123069 1.81337 0.356458 1.39169C0.589847 0.970018 0.925523 0.619532 1.3299 0.375302C1.73428 0.131071 2.19318 0.00166019 2.66069 1.58677e-05C3.12821 -0.00162845 3.58794 0.124552 3.99389 0.365932L18.656 9.08644C19.0643 9.3296 19.4037 9.68075 19.6397 10.1043C19.8757 10.5279 20 11.0089 20 11.4986C20 11.9883 19.8757 12.4693 19.6397 12.8929C19.4037 13.3165 19.0643 13.6676 18.656 13.9108L3.99389 22.6341C3.58794 22.8754 3.12821 23.0016 2.66069 23C2.19318 22.9983 1.73428 22.8689 1.3299 22.6247C0.925523 22.3805 0.589847 22.03 0.356458 21.6083C0.123069 21.1866 0.00015077 20.7085 0 20.2219V2.77811ZM17.3318 11.4986L2.66972 2.77811V20.2219L17.3318 11.4986Z" fill="#333333"/>
</svg>
